<?xml version="1.0" encoding="UTF-8"?>
<svg width="124px" height="50px" viewBox="0 0 124 50" version="1.1" xmlns="http://www.w3.org/2000/svg" xmlns:xlink="http://www.w3.org/1999/xlink">
    <title>Your Logo</title>
    <g id="Symbols" stroke="none" stroke-width="1" fill="none" fill-rule="evenodd">
        <g id="Design-/-Header-/-Header-White" transform="translate(-150.000000, -19.000000)" fill="#6100DC">
            <g id="Your-Logo" transform="translate(150.000000, 19.000000)">
                <path d="M15.7520542,42.5867283 C16.1495393,41.63101 17.2496305,41.1771071 18.2092497,41.573058 L18.2092497,41.573058 L18.3493699,41.6375816 C19.2123111,42.0781395 19.6047461,43.1123326 19.2270574,44.0202649 L19.2270574,44.0202649 L17.2211919,48.843259 C16.8237068,49.7989772 15.7235337,50.2527985 14.7639145,49.8569292 C13.8042953,49.4611416 13.3486217,48.3654406 13.7461068,47.4097224 L13.7461068,47.4097224 Z M90.7132518,16.0313259 C95.7380371,16.0313259 99.8120544,20.0887822 99.8120544,25.0931415 C99.8120544,30.0973376 95.7380371,34.1539776 90.7132518,34.1539776 C88.7234496,34.1539776 86.8835444,33.518138 85.386132,32.4391697 L85.386132,32.4391697 L85.386132,39.9606048 L81.6244478,39.9606048 L81.6244478,25.0931415 C81.6244478,20.0887822 85.6886304,16.0313259 90.7132518,16.0313259 Z M36.9003921,16.4896691 L42.2071049,29.4763043 L47.6084766,16.4896691 L51.369833,16.4896691 L41.6845555,39.7770684 L37.9230352,39.7770684 L40.4660383,33.6626426 L33.1389538,16.4896691 L36.9003921,16.4896691 Z M6.00412979,30.851089 C6.96374896,30.4552197 8.06392213,30.909041 8.46140723,31.8647593 L8.46140723,31.8647593 L8.51467495,32.0090619 C8.81206509,32.9282979 8.35523773,33.9359679 7.44359952,34.3119662 L7.44359952,34.3119662 L2.60091978,36.3097594 C1.64130061,36.7057103 0.541127438,36.2518074 0.143642344,35.2960891 C-0.25384275,34.3403708 0.201912839,33.2446699 1.16153201,32.8488822 L1.16153201,32.8488822 Z M25.0237915,16.0273835 C30.1918354,16.0273835 32.4752028,18.3057134 32.4752028,21.2079659 L32.4752028,21.5680845 L28.7662981,21.5680845 L28.7662981,21.3712926 C28.7662981,20.0185623 27.6435871,18.8627056 25.0237915,18.8627056 C22.6731384,18.8627056 21.3485706,19.6877461 21.3485706,21.2707336 C21.3485706,24.9688059 32.8073692,21.5346193 32.8073692,28.5620748 C32.8073692,31.728213 30.1918354,33.9729143 25.124679,33.9729143 C19.4940773,33.9729143 17.4083869,31.5648046 17.4083869,28.8594257 C17.4083869,28.7254015 17.4083869,28.5620748 17.437809,28.4280506 L21.1508935,28.4280506 L21.1508935,28.59554 C21.1508935,29.9818172 22.5091451,31.1042087 25.124679,31.1042087 C27.6099033,31.1042087 29.0984645,30.3126333 29.0984645,28.6625521 C29.0984645,25.0985857 17.6396659,28.3987481 17.6396659,21.4047578 C17.6396659,18.2387013 20.3561692,16.0273835 25.0237915,16.0273835 Z M71.7626869,16.0277998 C76.2669716,16.0277998 78.9829831,18.3698768 78.9829831,23.9775083 L78.9829831,23.9775083 L78.9829831,33.5101227 L75.2215448,33.5101227 L75.2215448,23.9775083 C75.2403127,20.6788968 73.8164965,19.1949991 71.3325015,19.1949991 C68.8485065,19.1949991 67.4335415,20.8107988 67.4335415,24.1423042 L67.4335415,24.1423042 L67.4335415,33.5101227 L63.6721032,33.5101227 L63.6721032,23.9775083 C63.6721032,20.6788968 62.257466,19.1949991 59.7738808,19.1949991 C57.2898858,19.1949991 55.8840179,20.8107988 55.8840179,24.1423042 L55.8840179,24.1423042 L55.8840179,33.5101227 L52.1225796,33.5101227 L52.1225796,24.1423042 C52.1225796,18.5346727 54.8717012,16.0277998 59.3763138,16.0277998 C62.2909859,16.0277998 64.3107839,16.9844159 65.4367731,19.2271583 L65.4367731,19.2271583 L65.7684478,19.2271583 C66.894437,17.0506934 68.8812887,16.0277998 71.7626869,16.0277998 Z M105.867998,9.70042894 L105.867998,33.4875214 L102.10656,33.4875214 L102.10656,9.70042894 L105.867998,9.70042894 Z M115.846062,16.0316034 C118.028542,16.0316034 119.84091,16.6640148 121.089751,17.8617439 C122.431202,19.1474621 123.112418,21.0195566 123.112418,23.4275847 L123.112418,23.9175647 L119.382532,23.9175647 L119.382532,23.3941194 C119.382532,20.8435784 118.192536,19.5495347 115.846062,19.5495347 C113.503851,19.5495347 112.311641,20.8435784 112.311641,23.3941194 L112.311641,33.4870725 L108.550203,33.4870725 L108.550203,23.3941194 C108.550203,18.716087 111.212124,16.0316034 115.846062,16.0316034 Z M90.7174315,19.7778003 C87.7752223,19.7778003 85.3812966,22.1619946 85.3812966,25.0931415 C85.3812966,28.0233089 87.7752223,30.4075032 90.7174315,30.4075032 C93.6603784,30.4075032 96.054386,28.0233089 96.054386,25.0931415 C96.054386,22.1619946 93.6603784,19.7778003 90.7174315,19.7778003 Z M0.143642344,14.7038986 C0.541127438,13.7481803 1.64130061,13.294359 2.60091978,13.6902283 L2.60091978,13.6902283 L7.44359952,15.6880215 C8.40321869,16.0838908 8.85889232,17.1795917 8.46140723,18.1352284 L8.46140723,18.1352284 L8.39661971,18.274779 C7.9542562,19.1342123 6.915768,19.525052 6.00412979,19.1488987 L6.00412979,19.1488987 L1.16153201,17.1511871 C0.201912839,16.7553178 -0.25384275,15.6596168 0.143642344,14.7038986 Z M14.7639145,0.143058432 C15.7235337,-0.252810869 16.8237068,0.201092055 17.2211919,1.15681033 L17.2211919,1.15681033 L19.2270574,5.97980438 C19.6246245,6.93544103 19.1688689,8.03114196 18.2092497,8.42701126 L18.2092497,8.42701126 L18.0643587,8.48006245 C17.1413779,8.77624369 16.1296651,8.32127335 15.7520542,7.41334098 L15.7520542,7.41334098 L13.7461068,2.59034694 C13.3486217,1.63462866 13.8042953,0.538927733 14.7639145,0.143058432 Z M32.9829593,1.1567532 C33.3803624,0.20103492 34.4805356,-0.252786382 35.4401548,0.143082919 L35.4401548,0.143082919 L35.5802744,0.207607064 C36.4432084,0.648172152 36.8355733,1.68243498 36.4579625,2.5902898 L36.4579625,2.5902898 L34.452097,7.41328385 C34.0546119,8.36900212 32.9544387,8.82290505 31.9948195,8.42703575 C31.0352004,8.03116645 30.5795267,6.93546552 30.9770118,5.97974724 L30.9770118,5.97974724 Z" id="revised-logo"></path>
            </g>
        </g>
    </g>
</svg>